<?xml version="1.0" encoding="UTF-8"?>
<svg width="178px" height="34px" viewBox="0 0 178 34" version="1.1" xmlns="http://www.w3.org/2000/svg" xmlns:xlink="http://www.w3.org/1999/xlink">
    <!-- Generator: Sketch 47.1 (45422) - http://www.bohemiancoding.com/sketch -->
    <title>GundryMD_Logo_White</title>
    <desc>Created with Sketch.</desc>
    <defs>
        <polygon id="path-1" points="5.51300909 0.0542438811 0.2331 0.0542438811 0.2331 3.46709266 5.51300909 3.46709266 5.51300909 0.0542438811"></polygon>
        <polygon id="path-3" points="0 10.9966224 0 0.0399274878 14.5412319 0.0399274878 14.5412319 10.9966224"></polygon>
    </defs>
    <g id="VSL" stroke="none" stroke-width="1" fill="none" fill-rule="evenodd">
        <g id="GundryMD_VSL" transform="translate(-565.000000, -13.000000)">
            <g id="Group" transform="translate(562.000000, 10.000000)">
                <g id="GundryMD_Logo_White">
                    <g id="GundryMD-Logo" transform="translate(3.579545, 3.579545)">
                        <g id="gundry-MD" transform="translate(39.375000, 9.306818)">
                            <g id="Page-1">
                                <path d="M10.7303373,4.49873162 C10.4448622,4.11858838 10.1593871,3.78882208 9.87476503,3.50972224 C9.58900561,3.23062241 9.2822052,2.99871476 8.95237343,2.81428884 C8.62311034,2.63015243 8.2671195,2.49349774 7.88297923,2.40403524 C7.49883895,2.31428322 7.06550825,2.26998625 6.58270279,2.26998625 C6.18747334,2.26998625 5.77063423,2.31138799 5.33190111,2.39563908 C4.893168,2.47902161 4.46268067,2.61046489 4.04015481,2.78910037 C3.61762894,2.96802536 3.21756575,3.20253871 2.83854356,3.49264041 C2.46037438,3.78332115 2.12514019,4.13827592 1.83511571,4.55692567 C1.54423821,4.97615447 1.31364031,5.45965729 1.14389069,6.0068551 C0.97328805,6.55405291 0.888555406,7.18000088 0.888555406,7.88354092 C0.888555406,8.7882992 1.0392544,9.58738171 1.34122107,10.2796304 C1.6429034,10.9721686 2.05149672,11.5564253 2.56728536,12.0312424 C3.08307401,12.50577 3.69155675,12.8662257 4.39415528,13.1117409 C5.09618514,13.3575457 5.84257168,13.4803033 6.63217755,13.4803033 C7.26852539,13.4803033 7.92136482,13.3879455 8.5904115,13.2040987 C9.26002685,13.0196727 9.87476503,12.7486795 10.4340573,12.3908295 L10.4340573,9.20723847 L5.67765579,9.20723847 L5.67765579,8.35285713 L11.3226127,8.35285713 L11.3226127,12.843643 C10.9162941,13.1117409 10.5216334,13.3407534 10.1380618,13.5303907 C9.75363715,13.7206071 9.36693784,13.8743436 8.97711081,13.9913107 C8.58756812,14.1088569 8.19006398,14.1922395 7.78431404,14.2429059 C7.37771108,14.2929933 6.95546955,14.3181818 6.51673643,14.3181818 C5.66087987,14.3181818 4.83829081,14.1760262 4.0484006,13.8905569 C3.25851039,13.6062456 2.56444199,13.1870168 1.96676408,12.6346076 C1.36823316,12.0810403 0.891114446,11.4079001 0.534554932,10.6146081 C0.177995419,9.82218458 0,8.91163585 0,7.88354092 C0,7.10182976 0.0961061528,6.40002686 0.288034121,5.78044839 C0.479677751,5.16000135 0.740984124,4.61048736 1.06996288,4.13016928 C1.39922597,3.64927216 1.77995419,3.23872904 2.21328489,2.89853993 C2.64633125,2.55777177 3.10468367,2.27809289 3.58748914,2.06037186 C4.07057894,1.8423613 4.56418924,1.68283432 5.06860438,1.58236996 C5.57301951,1.4819056 6.05610931,1.43181818 6.51673643,1.43181818 C7.1201011,1.43181818 7.65806808,1.4882751 8.12950004,1.5994518 C8.60178501,1.71091802 9.02971329,1.87855163 9.41385357,2.10235264 C9.79742516,2.32586413 10.1539847,2.59946303 10.4832478,2.92314935 C10.8122265,3.2471252 11.1360872,3.61568753 11.4545455,4.02970492 L10.7303373,4.49873162 Z" id="Fill-1" fill="#FFFFFF"></path>
                                <path d="M24.7658367,11.4851163 C24.5713557,12.1790065 24.2685337,12.7369497 23.8573707,13.1577662 C23.4462077,13.5785828 22.9237436,13.8773124 22.2896823,14.0536601 C21.656213,14.2300079 20.898714,14.3181818 20.0198494,14.3181818 C19.1513452,14.3181818 18.4030226,14.2300079 17.7751776,14.0536601 C17.1470366,13.8773124 16.6304927,13.5785828 16.2246579,13.1577662 C15.8191192,12.7369497 15.5192573,12.1790065 15.3253684,11.4851163 C15.1311834,10.7912261 15.0340909,9.93160442 15.0340909,8.90772565 L15.0340909,1.43181818 L15.9591337,1.43181818 L15.9591337,8.87351772 C15.9591337,9.71574058 16.0218886,10.4296837 16.1479904,11.015642 C16.2732042,11.6018951 16.4904782,12.0766776 16.7989245,12.4408741 C17.1070747,12.8053655 17.5211979,13.0663485 18.0407019,13.2258872 C18.5605019,13.3854259 19.2197244,13.4650478 20.0198494,13.4650478 C20.8421754,13.4650478 21.5191587,13.3854259 22.0499112,13.2258872 C22.5812558,13.0663485 23.0010032,12.8053655 23.3091534,12.4408741 C23.6175997,12.0766776 23.8316176,11.6018951 23.9517991,11.015642 C24.0713886,10.4296837 24.1314794,9.71574058 24.1314794,8.87351772 L24.1314794,1.43181818 L25.0568182,1.43181818 L25.0568182,8.90772565 C25.0568182,9.93160442 24.9594297,10.7912261 24.7658367,11.4851163" id="Fill-3" fill="#FFFFFF"></path>
                                <path d="M39.9453819,14.3181818 C37.7732672,11.5590716 35.9436266,9.23442438 34.4576271,7.34454056 C32.9722111,5.45495719 31.8073905,3.96528406 30.9631654,2.87492025 C30.9742506,3.97640103 30.9797932,5.46637462 30.9797932,7.34454056 L30.9797932,14.3181818 L30.0681818,14.3181818 L30.0681818,1.43181818 L30.9293264,1.43181818 C33.1017328,4.20294672 34.9334154,6.53330267 36.4252492,8.42258558 C37.9164996,10.3127699 39.078403,11.7961334 39.9115429,12.8741784 C39.9004577,11.7847159 39.8952068,10.3007515 39.8952068,8.42258558 L39.8952068,1.43181818 L40.8068182,1.43181818 L40.8068182,14.3181818 L39.9453819,14.3181818 Z" id="Fill-5" fill="#FFFFFF"></path>
                                <path d="M54.6263971,5.6230112 C54.3997255,4.9388513 54.0488044,4.35324407 53.5733537,3.86618953 C53.0981829,3.37943544 52.4853301,2.99994754 51.7347953,2.72712488 C50.9845403,2.45520362 50.0907267,2.31819136 49.0541939,2.31819136 L45.9767773,2.31819136 L45.9767773,13.4309072 L49.0541939,13.4309072 C50.0907267,13.4309072 50.9845403,13.2953973 51.7347953,13.0228751 C52.4853301,12.7503529 53.0981829,12.3705646 53.5733537,11.88351 C54.0488044,11.3967559 54.3997255,10.8138529 54.6263971,10.1363032 C54.8533486,9.4575517 54.9661247,8.70728939 54.9661247,7.8837135 C54.9661247,7.06043808 54.8533486,6.30717111 54.6263971,5.6230112 M55.4197477,10.5359223 C55.1387869,11.3297521 54.7176255,12.0048981 54.1562635,12.5613601 C53.5951813,13.1178222 52.8852235,13.550192 52.0263901,13.8575682 C51.1683962,14.1643435 50.1662839,14.3181818 49.0217323,14.3181818 L45.1022727,14.3181818 L45.1022727,1.43181818 L49.0217323,1.43181818 C50.1662839,1.43181818 51.1683962,1.58565651 52.0263901,1.89243177 C52.8852235,2.19950749 53.5951813,2.63488198 54.1562635,3.19705289 C54.7176255,3.75922381 55.1387869,4.43797534 55.4197477,5.23120421 C55.7007085,6.02563495 55.8409091,6.90990487 55.8409091,7.8837135 C55.8409091,8.8578226 55.7007085,9.74149158 55.4197477,10.5359223" id="Fill-7" fill="#FFFFFF"></path>
                                <path d="M69.3146431,4.10139175 C69.1879456,3.77058697 68.9345505,3.47253216 68.5533138,3.20572503 C68.1729352,2.9389179 67.6372591,2.72439055 66.9482875,2.56184252 C66.258172,2.40019585 65.3446912,2.31817069 64.2084172,2.31817069 L61.0303965,2.31817069 L61.0303965,8.07495512 L65.3169493,8.07495512 C66.0122128,8.07495512 66.6225347,7.98842308 67.1467708,7.81415716 C67.670435,7.6401917 68.1065834,7.41394647 68.4540722,7.13572192 C68.801847,6.85749737 69.064108,6.54171551 69.2402834,6.18807588 C69.4167448,5.83473671 69.5054045,5.47268424 69.5054045,5.10131757 C69.5054045,4.76510453 69.4416267,4.43159562 69.3146431,4.10139175 L69.3146431,4.10139175 Z M70.3496735,14.3181818 L65.1021641,8.962209 L61.0303965,8.962209 L61.0303965,14.3181818 L60.1363636,14.3181818 L60.1363636,1.43181818 L64.3408348,1.43181818 C66.4483613,1.43181818 67.9853199,1.75360921 68.9508524,2.39719127 C69.916099,3.04047287 70.3991513,3.9418483 70.3991513,5.10131757 C70.3991513,5.62291348 70.2916157,6.09853925 70.0762585,6.5272935 C69.8611872,6.95604775 69.5660363,7.33612772 69.1910916,7.66573067 C68.8155749,7.99683591 68.3742785,8.26634717 67.8663443,8.47516581 C67.3586961,8.68368399 66.812152,8.82279627 66.2278561,8.89220218 L71.5909091,14.3181818 L70.3496735,14.3181818 Z" id="Fill-9" fill="#FFFFFF"></path>
                                <path d="M79.911492,8.82279627 L79.911492,14.3181818 L79.020041,14.3181818 L79.020041,8.82279627 L73.7386364,1.43181818 L74.810887,1.43181818 L77.2705045,4.89279938 C77.6338149,5.4143953 77.9994067,5.92697746 78.3681355,6.4317477 C78.736579,6.93561657 79.1021709,7.44879965 79.4654813,7.97039557 C79.8393432,7.44879965 80.2083571,6.93351336 80.5713824,6.42333487 C80.9346928,5.91255545 81.2977181,5.39696871 81.6610286,4.87507233 L84.120646,1.43181818 L85.1931818,1.43181818 L79.911492,8.82279627 Z" id="Fill-11" fill="#FFFFFF"></path>
                                <path d="M108.492435,14.3181818 L108.492435,11.0504872 L108.492435,8.28249824 C108.492435,7.44559527 108.495063,6.68593575 108.500611,6.00351966 C108.506159,5.32199485 108.509079,4.70018515 108.509079,4.13779349 C107.776444,5.26168555 106.863644,6.65682091 105.770969,8.32498213 C104.678295,9.99314335 103.37129,11.9907775 101.850248,14.3181818 L100.734797,14.3181818 C99.2020743,11.9788939 97.8953618,9.97591212 96.8137834,8.3077509 C95.7322051,6.63988677 94.8249524,5.25069321 94.0926094,4.13779349 C94.1037055,5.26168555 94.1098375,6.65474128 94.1098375,8.31666361 L94.1098375,14.3181818 L92.3522727,14.3181818 L92.3522727,0.715909091 L93.9407679,0.715909091 C95.6986248,3.42150913 97.188423,5.70316152 98.4107467,7.56027207 C99.6330704,9.41708554 100.5996,10.8903556 101.309166,11.9788939 C102.019025,10.8903556 102.982926,9.41441173 104.199702,7.55106228 C105.416478,5.68830701 106.909196,3.4102197 108.677857,0.715909091 L110.25,0.715909091 L110.25,14.3181818 L108.492435,14.3181818 Z" id="Fill-13" fill="#FFFFFF"></path>
                                <path d="M124.624979,5.46241482 C124.413821,4.84358955 124.076146,4.31002728 123.609299,3.86291636 C123.142453,3.41580545 122.5426,3.06910881 121.808268,2.82282645 C121.07482,2.57654409 120.183594,2.45295729 119.137244,2.45295729 L116.320534,2.45295729 L116.320534,12.5808365 L119.137244,12.5808365 C120.183594,12.5808365 121.07482,12.458141 121.808268,12.2112645 C122.5426,11.9649821 123.142453,11.6182855 123.609299,11.1711745 C124.076146,10.7240636 124.413821,10.1905014 124.624979,9.57167609 C124.835546,8.95255373 124.940535,8.2710438 124.940535,7.52566088 C124.940535,6.76898878 124.835546,6.08153718 124.624979,5.46241482 M126.237856,10.3280511 C125.919645,11.1652329 125.441592,11.8791249 124.80399,12.4694302 C124.166389,13.0594383 123.373074,13.5148676 122.422866,13.836015 C121.472657,14.1574596 120.36644,14.3181818 119.103034,14.3181818 L114.545455,14.3181818 L114.545455,0.715909091 L119.103034,0.715909091 C120.36644,0.715909091 121.472657,0.876631354 122.422866,1.1977788 C123.373074,1.51922332 124.166389,1.97465258 124.80399,2.56466074 C125.441592,3.15556016 125.919645,3.87153179 126.237856,4.71435815 C126.556361,5.55629326 126.715909,6.49418639 126.715909,7.52566088 C126.715909,8.55743245 126.556361,9.49176058 126.237856,10.3280511" id="Fill-15" fill="#FFFFFF"></path>
                                <polygon id="Fill-17" fill="#FFFFFF" points="129.795892 0.456864938 129.795892 3.57954545 129.363199 3.57954545 129.363199 0.456864938 128.147727 0.456864938 128.147727 0 131.011364 0 131.011364 0.456864938"></polygon>
                                <g id="Group-21" transform="translate(131.727273, 0.000000)">
                                    <mask id="mask-2" fill="white">
                                        <use xlink:href="#path-1"></use>
                                    </mask>
                                    <g id="Clip-20"></g>
                                    <path d="M4.99469091,3.46709266 L4.99469091,2.6471014 L4.99469091,1.95266958 C4.99469091,1.7425778 4.99532727,1.55203584 4.99723636,1.38104371 C4.99882727,1.20977622 4.99978182,1.05365297 4.99978182,0.912949301 C4.78341818,1.19463199 4.51423636,1.5451521 4.19191818,1.96340822 C3.8696,2.38193969 3.48396364,2.88307605 3.03532727,3.46709266 L2.70632727,3.46709266 C2.25419091,2.88032255 1.86855455,2.37753409 1.54941818,1.95900262 C1.23028182,1.54047115 0.962690909,1.1918785 0.746645455,0.912949301 C0.749827273,1.19463199 0.751736364,1.54432605 0.751736364,1.96120542 L0.751736364,3.46709266 L0.2331,3.46709266 L0.2331,0.0541337413 L0.701781818,0.0541337413 C1.22041818,0.732870629 1.66014545,1.30532255 2.02032727,1.77148951 C2.38114545,2.23738112 2.66623636,2.6071757 2.8756,2.88032255 C3.08496364,2.6071757 3.36941818,2.23655507 3.72832727,1.76928671 C4.08691818,1.30201836 4.5276,0.730392483 5.04941818,0.0541337413 L5.51300909,0.0541337413 L5.51300909,3.46709266 L4.99469091,3.46709266 Z" id="Fill-19" fill="#FFFFFF" mask="url(#mask-2)"></path>
                                </g>
                            </g>
                        </g>
                        <g id="medical-symbol">
                            <path d="M12.3390606,26.8404093 C12.0720898,26.767361 11.8093599,26.6803063 11.5965102,26.5607139 C11.4860466,26.4878811 11.4410129,26.4594375 11.3909306,26.3956549 C11.3418581,26.3370439 11.3178267,26.2611943 11.3117684,26.1838363 C11.3077295,26.0952733 11.3545806,26.0144677 11.4111251,25.9541328 C11.4438401,25.9203021 11.4612074,25.9034945 11.5161363,25.862984 C11.5672283,25.8211805 11.6312447,25.7834712 11.6918281,25.7451154 C11.9454705,25.5949246 12.2386941,25.4723155 12.537976,25.3652211 C13.139367,25.1506012 13.7722614,24.9872661 14.4071752,24.8364288 C15.2133381,24.6483132 16.0293962,24.4843316 16.8478777,24.3242286 L16.795776,23.4724292 C15.9439737,23.6499862 15.0911616,23.8320683 14.2383495,24.042594 C13.5905113,24.2057137 12.9428749,24.3806849 12.29746,24.6196542 C11.9747525,24.7409704 11.6526508,24.8769394 11.3317609,25.0715194 C11.2515889,25.1230196 11.1718207,25.1723649 11.0920526,25.2372249 C11.0118806,25.2966979 10.90485,25.3973279 10.8273033,25.4910624 C10.6617087,25.6828412 10.5579092,25.9321536 10.5627558,26.1896543 C10.587595,26.2997655 10.5892106,26.417634 10.6328306,26.5214963 C10.6869518,26.6191095 10.7095696,26.7371935 10.7901454,26.8175682 C10.9185822,26.9994348 11.1229502,27.1412218 11.265523,27.2235359 C11.5732866,27.3905342 11.8751938,27.4797437 12.1740718,27.5588255 C12.7714239,27.7085853 13.3588808,27.7857278 13.9453279,27.8587761 C14.9645423,27.9805233 15.9766887,28.0684399 16.9872195,28.1669151 C16.9965089,28.0072431 17.0112509,27.7391837 17.0175112,27.4900868 C16.0160679,27.3791137 15.0140188,27.2782682 14.025298,27.1470398 C13.4525831,27.0686045 12.8784546,26.9837047 12.3390606,26.8404093" id="Fill-1" fill="#FFFFFF"></path>
                            <path d="M20.3513057,11.8885946 C24.3412558,10.1406882 28.3092333,8.36691556 32.2745902,6.5917172 L31.7033014,5.28129657 C27.7484269,7.1104678 23.7943587,8.93678763 19.8354525,10.7290944 L19.4566764,10.9018076 L19.3647541,12.3230253 L20.3513057,11.8885946 Z" id="Fill-3" fill="#FFFFFF"></path>
                            <g id="Group-7" transform="translate(0.000000, 3.520864)">
                                <mask id="mask-4" fill="white">
                                    <use xlink:href="#path-3"></use>
                                </mask>
                                <g id="Clip-6"></g>
                                <path d="M3.18417139,0.830483332 C5.59174838,1.14687396 8.23260329,0.0399274878 10.8732516,0.988468282 C13.5136932,1.93742981 13.9798358,5.49556221 13.9798358,5.49556221 L6.83458871,3.43965421 C6.83458871,3.43965421 14.5395789,6.94519508 14.5412319,6.94645727 C14.4075465,7.37686634 14.1810871,7.78665952 13.935825,8.15164472 C13.7953211,8.40050783 13.5444801,8.70448686 13.309136,8.96386828 L13.3076896,8.96534084 C13.2642987,9.01351468 13.2221475,9.05937449 13.1808228,9.10355137 C12.9890762,9.31013089 12.8361748,9.45717681 12.7859653,9.50387808 C12.0696016,10.1688454 11.1288448,10.6244984 10.1880881,10.8474864 C6.95773631,11.6121672 3.46786545,9.33726812 2.32998986,6.28653878 C2.32606401,6.27559975 -0.000103311748,0.0399274878 -0.000103311748,0.0399274878 C-0.000103311748,0.0399274878 0.776801035,0.514303068 3.18417139,0.830483332" id="Fill-5" fill="#FFFFFF" mask="url(#mask-4)"></path>
                            </g>
                            <path d="M21.1251863,3.22756531 C21.1251863,5.01002826 19.6802013,6.45491803 17.8978336,6.45491803 C16.1152532,6.45491803 14.6702683,5.01002826 14.6702683,3.22756531 C14.6702683,1.44510235 16.1152532,0 17.8978336,0 C19.6802013,0 21.1251863,1.44510235 21.1251863,3.22756531" id="Fill-8" fill="#FFFFFF"></path>
                            <path d="M21.7804056,8.78054419 C21.7804056,8.78054419 22.2475255,5.35027414 24.8948839,4.43567066 C27.5420351,3.52086438 30.1896007,4.58817217 32.6032955,4.28316915 C35.0167832,3.97836892 35.7954545,3.52086438 35.7954545,3.52086438 C35.7954545,3.52086438 33.4635834,9.53250644 33.4596476,9.54284896 C32.3188805,12.4835729 28.8199345,14.6769989 25.5817885,13.9396379 C24.6386412,13.7248785 23.6952867,13.2852198 22.9771027,12.644389 C22.8128339,12.4977686 21.3868233,11.1410729 21.7804056,10.9147542 L28.9436022,6.79863292 L21.7804056,8.78054419 Z" id="Fill-10" fill="#FFFFFF"></path>
                            <path d="M19.6373732,30.5476147 C20.1901983,30.2059488 20.0207383,30.1451616 20.7221199,30.1128816 C20.8173016,30.1082701 22.1455835,30.1091086 22.2988077,29.995709 C21.4764703,29.8676367 20.2350493,29.5563644 19.5829837,30.1279735 C19.3441162,30.3373749 19.0796775,30.1774417 18.9670424,30.0340678 C18.7226954,29.7223763 18.5798213,29.7374683 18.483219,29.4016715 C18.4280177,29.2096678 18.3013794,28.2926197 18.32898,27.6572888 L18.6912387,21.9137381 L19.5921162,7.62853949 L17.7899553,7.62853949 L15.9879973,7.62853949 L16.8890778,21.9137381 L17.2077031,26.9655725 L17.2077031,26.9657821 C17.2300271,27.3204439 17.170361,28.1475689 17.1701581,28.1672723 C17.1693463,28.2167405 17.1397161,28.7233703 17.1405279,28.7728385 C17.1413397,28.858779 17.1433692,28.9461868 17.1094772,29.0289831 C17.0678732,29.1306445 16.9826359,29.2157465 16.9193167,29.3086042 C16.8576211,29.399785 16.794302,29.4909657 16.7186031,29.5748101 C16.312508,30.025893 15.6247239,30.0860513 15.0798137,30.3457594 C14.8399315,30.460207 11.9623594,30.9379104 11.7413511,31.0548733 C11.6013184,31.1290756 14.3717349,30.7786061 14.2785827,30.8968267 C14.0867987,31.1414427 13.7365138,31.5864468 13.438589,31.7438647 C13.2780587,31.8289667 13.0915512,31.8740331 12.9247296,31.9503315 C12.8106739,32.0025246 12.6282254,32.0746308 12.5726182,32.1783882 L13.7344843,32.0945439 C14.2426612,32.4886125 14.0182029,32.5626052 14.1399705,33.4463251 C14.3835058,33.0952267 14.4149624,32.6317768 14.3928413,32.2907397 C14.3707202,31.9526372 14.356514,32.1576368 14.2980655,31.822888 C14.2416465,31.4963141 14.4411425,31.2221429 14.804213,31.08359 C15.3387729,30.8798482 15.8753622,30.6790408 16.4162135,30.4868276 C16.6063739,30.4193328 17.2012088,30.087309 17.459965,30.0196047 C17.6355134,30.5763315 17.4964953,31.3500056 17.5234871,31.8390281 C17.5498701,32.3087663 17.3822367,32.8512395 17.25296,33.4482116 C17.6901058,32.7284075 17.9653007,31.6099232 17.9695626,31.5872853 C18.0085282,31.391299 18.2441486,30.8676907 18.2932615,30.6199305 C18.9294974,30.605677 19.1890654,31.022174 19.7830885,31.1720459 C20.1770068,31.2714015 20.5283064,31.329883 21.1521626,31.3183544 C20.6167909,30.9842344 19.8941,30.911709 19.6373732,30.5476147" id="Fill-12" fill="#FFFFFF"></path>
                            <path d="M25.2234849,21.7251937 C25.1847756,21.4589289 25.017384,21.233155 24.8083538,21.0571997 C24.7100113,20.973886 24.5700301,20.8793365 24.4775462,20.8303659 C24.3892472,20.7833031 24.3001112,20.7353924 24.2130676,20.6980814 C23.5146263,20.3930217 22.8341796,20.2418698 22.1505943,20.0941098 C21.4682644,19.9524976 20.78719,19.8412006 20.1063249,19.7398674 C19.6798949,19.6769051 19.2543018,19.6239065 18.8284995,19.568152 C18.0752375,19.4693627 17.3226032,19.3756612 16.5708059,19.2883196 C16.3904415,19.2673321 16.2094493,19.2448607 16.0290849,19.2240853 C14.6732133,19.0663616 13.3188063,18.9158456 11.9803016,18.7254748 C11.3122,18.6292294 10.6459816,18.5232323 10.0036165,18.383104 C9.68473557,18.312298 9.36690085,18.2325881 9.08798466,18.1314669 C9.02270195,18.1072995 8.94465564,18.0763483 8.90155231,18.0553609 C8.87874521,18.0451852 8.8649354,18.0371294 8.84819625,18.0252577 C8.81597337,18.0053303 8.78584289,17.9695032 8.79839726,17.9285883 C8.80153585,17.8974252 8.8044652,17.8601142 8.82266904,17.8478185 C8.8304109,17.7799804 8.90406318,17.7261338 8.94214476,17.6587196 C9.07605801,17.534703 9.24533273,17.4043265 9.48030863,17.2896376 C9.69728994,17.1749487 9.96951046,17.0509321 10.2331522,16.9218276 L10.9882973,16.574793 C11.9786277,16.1024697 13.0390532,15.6695774 14.0764624,15.2205736 L16.2477402,14.2615115 L16.1606966,12.9098361 L13.5818203,14.0872522 C12.5517345,14.5483398 11.5256243,14.9803841 10.4811009,15.4929862 L9.70147473,15.8641882 C9.45938468,15.9865089 9.21792236,16.0984418 8.9364953,16.2502297 C8.42281245,16.5434178 7.65197431,16.9688903 7.62853949,18.1357067 C7.64402321,18.274987 7.66850423,18.421687 7.74445815,18.5486716 C7.8237599,18.6697203 7.91728993,18.7827132 8.03948577,18.8679349 C8.15268432,18.9605764 8.29392095,19.0294746 8.42323093,19.0945568 C8.53559251,19.1447994 8.6171959,19.1749026 8.71219061,19.2090337 C9.07773193,19.3358063 9.42527865,19.4153041 9.77324386,19.4888661 C10.4664542,19.6311143 11.1506672,19.7305396 11.8342524,19.8202132 C13.2005861,19.9972284 14.5604332,20.1314208 15.9173511,20.272185 C16.1581857,20.2969883 16.3981833,20.3234876 16.6390179,20.3487149 C17.3489674,20.4229129 18.0566152,20.5028347 18.7630076,20.5865725 C19.1653751,20.6344832 19.5685795,20.6796379 19.9688545,20.7336965 C20.6388393,20.824854 21.3063131,20.9259753 21.9622788,21.0538078 C22.612595,21.1829123 23.2744194,21.3317323 23.8328795,21.5698019 C23.9033932,21.5984211 23.9651188,21.6323402 24.0285184,21.6639273 C24.0868962,21.6972104 24.0881516,21.6972104 24.1218392,21.7209538 C24.1710104,21.7576288 24.2220649,21.8046915 24.233573,21.8687138 C24.2459182,21.9321001 24.2208094,21.9969703 24.1818909,22.047001 C24.1323011,22.1046634 24.1233038,22.1169591 23.9816487,22.2129925 C23.4922377,22.5239881 22.8412937,22.7383143 22.2098091,22.9257172 C21.0232121,23.265756 19.791838,23.5178172 18.5585807,23.7656385 L18.502086,24.6460507 C19.8156913,24.3995013 21.1334813,24.154012 22.4504344,23.7942577 C23.1243947,23.597527 23.7968903,23.4060962 24.4750353,22.9941913 C24.619829,22.9062137 24.8874463,22.7012153 25.0324492,22.4837091 C25.1849848,22.2611152 25.2607295,21.9897625 25.2234849,21.7251937" id="Fill-14" fill="#FFFFFF"></path>
                        </g>
                    </g>
                </g>
            </g>
        </g>
    </g>
</svg>