<?xml version="1.0" encoding="UTF-8"?>
<svg width="160px" height="30px" viewBox="0 0 160 30" version="1.1" xmlns="http://www.w3.org/2000/svg" xmlns:xlink="http://www.w3.org/1999/xlink">
    <!-- Generator: Sketch 47.1 (45422) - http://www.bohemiancoding.com/sketch -->
    <title>GundryMD_Logo_Footer</title>
    <desc>Created with Sketch.</desc>
    <defs>
        <polygon id="path-1" points="4.95879125 0.0476655254 0.209666667 0.0476655254 0.209666667 3.04662553 4.95879125 3.04662553 4.95879125 0.0476655254"></polygon>
        <polygon id="path-3" points="0 9.66302143 0 0.035085334 13.0794149 0.035085334 13.0794149 9.66302143"></polygon>
    </defs>
    <g id="VSL" stroke="none" stroke-width="1" fill="none" fill-rule="evenodd">
        <g id="GundryMD_VSL" transform="translate(-569.000000, -676.000000)">
            <g id="Footer" transform="translate(0.000000, 644.000000)">
                <g id="GundryMD_Logo_Footer" transform="translate(566.000000, 29.000000)">
                    <g id="GundryMD-Logo" transform="translate(3.219697, 3.219515)">
                        <g id="gundry-MD" transform="translate(35.416667, 8.178146)">
                            <g id="Page-1">
                                <path d="M9.6516261,3.95315382 C9.39484958,3.61911196 9.13807305,3.32933764 8.88206378,3.08408527 C8.6250315,2.8388329 8.34907346,2.63504955 8.05239938,2.47298964 C7.75623681,2.31118414 7.43603341,2.19110206 7.09051042,2.11248901 C6.74498742,2.03362155 6.35521906,1.99469664 5.9209496,1.99469664 C5.56545221,1.99469664 5.19051756,2.03107744 4.79588989,2.10511109 C4.40126222,2.17838151 4.0140514,2.29388418 3.63400168,2.45085587 C3.25395196,2.60808197 2.89410676,2.81415502 2.55318733,3.06907501 C2.21303515,3.32450382 1.91150176,3.63641192 1.65063318,4.00429047 C1.38899733,4.37267784 1.18158123,4.7975445 1.02889639,5.27838161 C0.875444278,5.75921872 0.799229731,6.30925566 0.799229731,6.92747481 C0.799229731,7.72250971 0.934779093,8.42468454 1.20638932,9.03298165 C1.4777438,9.64153316 1.8452616,10.1549349 2.30919848,10.5721692 C2.77313535,10.9891491 3.32044787,11.305891 3.9524148,11.5216317 C4.58387023,11.7376268 5.2552232,11.8454971 5.96545071,11.8454971 C6.53782707,11.8454971 7.12503714,11.76434 7.72682516,11.6027889 C8.32912468,11.440729 8.88206378,11.2026001 9.38513094,10.8881479 L9.38513094,8.09064267 L5.10688616,8.09064267 L5.10688616,7.33987531 L10.1843607,7.33987531 L10.1843607,11.286047 C9.8188889,11.5216317 9.46390302,11.7228709 9.11889153,11.8895103 C8.77311278,12.0566584 8.425288,12.1917507 8.07464994,12.2945328 C7.72426762,12.3978238 7.36672421,12.4710942 7.00176395,12.5156161 C6.63603642,12.5596293 6.25624245,12.581763 5.86161478,12.581763 C5.09179671,12.581763 4.35190179,12.4568472 3.64141853,12.2059978 C2.93093527,11.956166 2.30664094,11.5877786 1.76904705,11.1023621 C1.23068591,10.6159279 0.801531512,10.024422 0.480816606,9.32733537 C0.1601017,8.631012 0,7.83088887 0,6.92747481 C0,6.24056465 0.0864446877,5.62387197 0.259078309,5.07943207 C0.431456178,4.53422894 0.666493657,4.05135654 0.962400472,3.6292884 C1.25856304,3.20671145 1.601017,2.84595641 1.99078535,2.54702329 C2.38029795,2.24758134 2.79257262,2.00182015 3.22684208,1.81050295 C3.6613673,1.61893134 4.1053554,1.47875079 4.55906214,1.39047011 C5.01276887,1.30218944 5.44729409,1.2581763 5.86161478,1.2581763 C6.40432374,1.2581763 6.88820939,1.30778648 7.31224871,1.40548037 C7.7370553,1.50342867 8.12196434,1.65073274 8.46748733,1.84739257 C8.81249882,2.043798 9.13321373,2.28421655 9.4293763,2.56864824 C9.72528312,2.85333434 10.0165864,3.17719976 10.3030303,3.54100773 L9.6516261,3.95315382 Z" id="Fill-1" fill="#273779"></path>
                                <path d="M22.2761494,10.0922739 C22.1012195,10.7020134 21.8288399,11.1922928 21.4590107,11.5620753 C21.0891816,11.9318579 20.6192403,12.1943595 20.0489206,12.3493209 C19.4791334,12.5042823 18.7977851,12.581763 18.0072719,12.581763 C17.2260777,12.581763 16.5529833,12.5042823 15.988255,12.3493209 C15.4232604,12.1943595 14.9586442,11.9318579 14.5936077,11.5620753 C14.2288374,11.1922928 13.9591204,10.7020134 13.7847229,10.0922739 C13.6100591,9.48253431 13.5227273,8.72716209 13.5227273,7.82745288 L13.5227273,1.2581763 L14.3547763,1.2581763 L14.3547763,7.79739347 C14.3547763,8.53747685 14.4112225,9.16483745 14.5246474,9.6797344 C14.6372736,10.1948905 14.8327053,10.6120943 15.1101437,10.9321234 C15.3873159,11.2524116 15.7598076,11.4817442 16.2270863,11.621935 C16.6946313,11.7621259 17.2875828,11.8320917 18.0072719,11.8320917 C18.7469302,11.8320917 19.355857,11.7621259 19.8332535,11.621935 C20.3111824,11.4817442 20.688733,11.2524116 20.9659052,10.9321234 C21.2433436,10.6120943 21.4358465,10.1948905 21.5439463,9.6797344 C21.6515136,9.16483745 21.7055635,8.53747685 21.7055635,7.79739347 L21.7055635,1.2581763 L22.5378788,1.2581763 L22.5378788,7.82745288 C22.5378788,8.72716209 22.4502807,9.48253431 22.2761494,10.0922739" id="Fill-3" fill="#273779"></path>
                                <path d="M35.9297086,12.581763 C33.9759546,10.1572603 32.3302462,8.11453164 30.9936329,6.45384101 C29.6575444,4.7934144 28.6098221,3.48439943 27.8504663,2.52626806 C27.8604371,3.49416819 27.8654225,4.80344719 27.8654225,6.45384101 L27.8654225,12.581763 L27.0454545,12.581763 L27.0454545,1.2581763 L27.820029,1.2581763 C29.7740454,3.69323985 31.4215905,5.74098494 32.7634516,7.40114753 C34.104788,9.06210218 35.1498863,10.3655727 35.8992714,11.3128792 C35.8893005,10.3555399 35.8845775,9.05154135 35.8845775,7.40114753 L35.8845775,1.2581763 L36.7045455,1.2581763 L36.7045455,12.581763 L35.9297086,12.581763 Z" id="Fill-5" fill="#273779"></path>
                                <path d="M49.1348546,4.94108788 C48.9309701,4.33989857 48.6153267,3.82531009 48.1876726,3.39732245 C47.7602703,2.96959883 47.2090271,2.63613282 46.5339428,2.39639638 C45.8591103,2.15745201 45.055151,2.03705573 44.1228199,2.03705573 L41.3547732,2.03705573 L41.3547732,11.8020915 L44.1228199,11.8020915 C45.055151,11.8020915 45.8591103,11.6830154 46.5339428,11.443543 C47.2090271,11.2040706 47.7602703,10.8703405 48.1876726,10.4423529 C48.6153267,10.0146293 48.9309701,9.50241703 49.1348546,8.90703631 C49.3389908,8.31059949 49.4404296,7.65132426 49.4404296,6.92762646 C49.4404296,6.20419268 49.3389908,5.54227718 49.1348546,4.94108788 M49.8484503,9.25819212 C49.5957342,9.95575126 49.2169118,10.5490198 48.711983,11.0379976 C48.207306,11.5269755 47.5687196,11.9069102 46.7962239,12.1770098 C46.0244833,12.4465813 45.1231125,12.581763 44.0936216,12.581763 L40.5681818,12.581763 L40.5681818,1.2581763 L44.0936216,1.2581763 C45.1231125,1.2581763 46.0244833,1.39335809 46.7962239,1.66292958 C47.5687196,1.9327651 48.207306,2.31534011 48.711983,2.80933449 C49.2169118,3.30332886 49.5957342,3.89976569 49.8484503,4.59679677 C50.1011664,5.29488396 50.2272727,6.0719152 50.2272727,6.92762646 C50.2272727,7.78360175 50.1011664,8.56010493 49.8484503,9.25819212" id="Fill-7" fill="#273779"></path>
                                <path d="M62.3465044,3.60400083 C62.2325437,3.31331397 62.0046221,3.05140537 61.6617109,2.81695492 C61.3195713,2.58250448 60.8377463,2.39399365 60.2180364,2.25115842 C59.5972975,2.10911524 58.7756482,2.03703757 57.7536028,2.03703757 L54.8950656,2.03703757 L54.8950656,7.0956755 L58.7506951,7.0956755 C59.3760645,7.0956755 59.9250312,7.01963752 60.3965663,6.86650547 C60.867587,6.71363745 61.2598899,6.51482981 61.5724459,6.27034658 C61.8852592,6.02586334 62.1211554,5.74837752 62.27962,5.43762507 C62.4383419,5.12713665 62.5180887,4.80899162 62.5180887,4.48266195 C62.5180887,4.18722271 62.4607224,3.89415966 62.3465044,3.60400083 L62.3465044,3.60400083 Z M63.2774841,12.581763 L58.5575021,7.87532883 L54.8950656,7.87532883 L54.8950656,12.581763 L54.0909091,12.581763 L54.0909091,1.2581763 L57.8727085,1.2581763 C59.7683673,1.2581763 61.1508168,1.54094255 62.0192853,2.10647503 C62.8874965,2.6717435 63.321988,3.46380581 63.321988,4.48266195 C63.321988,4.94100201 63.2252628,5.35894688 63.0315552,5.73570452 C62.8381049,6.11246216 62.5726252,6.44644843 62.2353734,6.73607921 C61.8976071,7.0270301 61.5006738,7.26385673 61.0438017,7.44735116 C60.5871869,7.63058158 60.0955865,7.75282319 59.5700293,7.81381199 L64.3939394,12.581763 L63.2774841,12.581763 Z" id="Fill-9" fill="#273779"></path>
                                <path d="M71.8780616,7.75282319 L71.8780616,12.581763 L71.0762274,12.581763 L71.0762274,7.75282319 L66.3257576,1.2581763 L67.2902158,1.2581763 L69.5025701,4.29943154 C69.8293573,4.75777159 70.1581965,5.20819102 70.4898573,5.65174592 C70.8212616,6.09450874 71.1501008,6.54545622 71.476888,7.00379627 C71.8131658,6.54545622 72.1450831,6.0926606 72.4716138,5.64435333 C72.798401,5.19551803 73.1249316,4.74245839 73.4517188,4.28385431 L75.6640731,1.2581763 L76.6287879,1.2581763 L71.8780616,7.75282319 Z" id="Fill-11" fill="#273779"></path>
                                <path d="M97.5857883,12.581763 L97.5857883,9.71035383 L97.5857883,7.2780491 C97.5857883,6.54264045 97.5881521,5.87510764 97.5931424,5.27545067 C97.5981327,4.67657688 97.6007592,4.13017635 97.6007592,3.635988 C96.9417753,4.62358151 96.1207376,5.84952366 95.1379087,7.31538081 C94.1550799,8.78123796 92.9794674,10.5366117 91.6113338,12.581763 L90.6080184,12.581763 C89.229379,10.5261692 88.0540291,8.76609643 87.0811809,7.30023928 C86.1083326,5.83464319 85.2922852,4.61392226 84.633564,3.635988 C84.6435446,4.62358151 84.6490602,5.84769624 84.6490602,7.30807111 L84.6490602,12.581763 L83.0681818,12.581763 L83.0681818,0.629088152 L84.496987,0.629088152 C86.0781281,3.00657009 87.4181583,5.01151806 88.5176029,6.64340997 C89.6170475,8.27504081 90.4864124,9.56964198 91.1246471,10.5261692 C91.7631444,9.56964198 92.6301455,8.27269126 93.7245998,6.63531708 C94.8190541,4.99846502 96.1617107,2.99664977 97.7525697,0.629088152 L99.1666667,0.629088152 L99.1666667,12.581763 L97.5857883,12.581763 Z" id="Fill-13" fill="#273779"></path>
                                <path d="M112.096542,4.79996761 C111.906612,4.25618956 111.602883,3.78733436 111.182968,3.39444624 C110.763053,3.00155811 110.223503,2.69690665 109.562992,2.48049186 C108.903277,2.26407708 108.101646,2.1554781 107.160484,2.1554781 L104.626935,2.1554781 L104.626935,11.055112 L107.160484,11.055112 C108.101646,11.055112 108.903277,10.9472962 109.562992,10.7303593 C110.223503,10.5139445 110.763053,10.2092931 111.182968,9.81640497 C111.602883,9.42351684 111.906612,8.95466164 112.096542,8.41088359 C112.285941,7.86684449 112.380375,7.26798378 112.380375,6.6129962 C112.380375,5.94808852 112.285941,5.34400672 112.096542,4.79996761 M113.547278,9.07553022 C113.261056,9.81118386 112.831061,10.4384996 112.257558,10.9572163 C111.684054,11.475672 110.97049,11.8758697 110.115805,12.1580704 C109.26112,12.4405322 108.26611,12.581763 107.129713,12.581763 L103.030303,12.581763 L103.030303,0.629088152 L107.129713,0.629088152 C108.26611,0.629088152 109.26112,0.770319034 110.115805,1.05251974 C110.97049,1.3349815 111.684054,1.73517917 112.257558,2.25363487 C112.831061,2.77287373 113.261056,3.40201684 113.547278,4.14263053 C113.833764,4.88246106 113.977273,5.70661243 113.977273,6.6129962 C113.977273,7.51964103 113.833764,8.34065973 113.547278,9.07553022" id="Fill-15" fill="#273779"></path>
                                <polygon id="Fill-17" fill="#23356D" points="116.747628 0.401459241 116.747628 3.14544076 116.358433 3.14544076 116.358433 0.401459241 115.265152 0.401459241 115.265152 0 117.840909 0 117.840909 0.401459241"></polygon>
                                <g id="Group-21" transform="translate(118.484848, 0.000000)">
                                    <mask id="mask-2" fill="white">
                                        <use xlink:href="#path-1"></use>
                                    </mask>
                                    <g id="Clip-20"></g>
                                    <path d="M4.49257912,3.04662553 L4.49257912,2.32607764 L4.49257912,1.71586213 C4.49257912,1.53124895 4.49315152,1.36381472 4.49486869,1.21355944 C4.49629966,1.06306219 4.49715825,0.925872586 4.49715825,0.802232569 C4.30254545,1.04975456 4.06042424,1.3577658 3.77050842,1.72529845 C3.48059259,2.09307307 3.13372391,2.53343477 2.73018855,3.04662553 L2.43426263,3.04662553 C2.02757912,2.5310152 1.68071044,2.08920175 1.39365657,1.72142714 C1.10660269,1.35365253 0.865912458,1.04733499 0.671585859,0.802232569 C0.674447811,1.04975456 0.676164983,1.35703993 0.676164983,1.7233628 L0.676164983,3.04662553 L0.209666667,3.04662553 L0.209666667,0.0475687426 L0.631232323,0.0475687426 C1.09773064,0.643992703 1.49325253,1.14702127 1.81722559,1.55665444 C2.14177104,1.96604565 2.39820202,2.29099388 2.58651852,2.5310152 C2.77483502,2.29099388 3.0306936,1.96531978 3.35352189,1.55471878 C3.67606397,1.14411778 4.07244444,0.64181509 4.54180471,0.0475687426 L4.95879125,0.0475687426 L4.95879125,3.04662553 L4.49257912,3.04662553 Z" id="Fill-19" fill="#23356D" mask="url(#mask-2)"></path>
                                </g>
                            </g>
                        </g>
                        <g id="medical-symbol">
                            <path d="M11.0986259,23.5853738 C10.8584935,23.5211843 10.6221755,23.4446871 10.4307235,23.3395981 C10.3313646,23.275598 10.2908582,23.2506038 10.2458106,23.1945564 C10.2016713,23.1430533 10.1800558,23.0764023 10.1746065,23.0084258 C10.1709736,22.9306032 10.2131148,22.8595971 10.263975,22.8065793 C10.2934012,22.7768514 10.3090225,22.7620821 10.3584295,22.7264844 C10.4043852,22.6897506 10.4619662,22.6566145 10.5164591,22.6229102 C10.7446031,22.4909336 11.0083492,22.3831938 11.2775445,22.2890871 C11.8184783,22.100495 12.3877484,21.9569681 12.9588349,21.8244234 C13.6839549,21.6591213 14.4179754,21.5150263 15.1541757,21.3743396 L15.1073117,20.6258411 C14.3411403,20.7818651 13.5740607,20.9418654 12.8069811,21.1268598 C12.2242694,21.2701974 11.6417393,21.4239492 11.0612074,21.6339378 C10.7709414,21.7405416 10.4812203,21.8600211 10.1925891,22.0310037 C10.1204768,22.0762582 10.0487277,22.1196193 9.97697856,22.1766135 C9.90486617,22.2288739 9.80859522,22.3173002 9.7388442,22.3996672 C9.5898967,22.5681882 9.49653204,22.7872656 9.50089148,23.0135383 C9.52323361,23.1102959 9.52468675,23.21387 9.56392171,23.3051365 C9.61260211,23.3909118 9.63294616,23.4946753 9.70542183,23.5653027 C9.82094697,23.7251137 10.00477,23.8497057 10.1330101,23.9220372 C10.4098345,24.068783 10.6813912,24.1471737 10.9502233,24.216665 C11.4875242,24.3482629 12.0159245,24.41605 12.5434167,24.4802395 C13.4601704,24.587222 14.3705665,24.6644766 15.2795096,24.7510093 C15.2878652,24.6107013 15.3011251,24.3751505 15.3067561,24.1562625 C14.405987,24.0587475 13.504673,23.9701319 12.6153474,23.8548181 C12.100207,23.7858949 11.5837951,23.7112912 11.0986259,23.5853738" id="Fill-1" fill="#B8D436"></path>
                            <path d="M18.3054072,10.4468209 C21.8942513,8.91088952 25.4633315,7.35222882 29.0300546,5.79231532 L28.516197,4.64081424 C24.9589025,6.24815512 21.4023332,7.8529904 17.8414123,9.42793748 L17.5007142,9.57970511 L17.4180328,10.8285666 L18.3054072,10.4468209 Z" id="Fill-3" fill="#B8D436"></path>
                            <g id="Group-7" transform="translate(0.000000, 3.093876)">
                                <mask id="mask-4" fill="white">
                                    <use xlink:href="#path-3"></use>
                                </mask>
                                <g id="Clip-6"></g>
                                <path d="M2.86406951,0.729767553 C5.02961494,1.00778832 7.40498708,0.035085334 9.78017337,0.868593084 C12.1551738,1.70247054 12.5744555,4.82909509 12.5744555,4.82909509 L6.14751365,3.02251464 C6.14751365,3.02251464 13.0779281,6.10292563 13.0794149,6.10403475 C12.9591688,6.48224652 12.7554752,6.84234257 12.5348691,7.16306467 C12.4084898,7.38174723 12.1828657,7.6488616 11.9711805,7.87678688 L11.9698795,7.87808086 C11.9308507,7.92041248 11.8929369,7.9607107 11.8557665,7.99953009 C11.683296,8.18105695 11.5457657,8.31027006 11.5006037,8.3513077 C10.8562554,8.93563194 10.0100721,9.33602622 9.16388873,9.53197171 C6.25828134,10.2039169 3.11924406,8.20490315 2.09575807,5.52414702 C2.09222689,5.5145346 -9.29259112e-05,0.035085334 -9.29259112e-05,0.035085334 C-9.29259112e-05,0.035085334 0.698709926,0.451931636 2.86406951,0.729767553" id="Fill-5" fill="#B8D436" mask="url(#mask-4)"></path>
                            </g>
                            <path d="M19.0014903,2.83614655 C19.0014903,4.40244364 17.7017684,5.67210629 16.0985805,5.67210629 C14.4952013,5.67210629 13.1954794,4.40244364 13.1954794,2.83614655 C13.1954794,1.26984945 14.4952013,0 16.0985805,0 C17.7017684,0 19.0014903,1.26984945 19.0014903,2.83614655" id="Fill-8" fill="#273779"></path>
                            <path d="M19.590841,7.71569518 C19.590841,7.71569518 20.0110018,4.70142665 22.3922236,3.8977405 C24.7732591,3.09387616 27.1546673,4.03174759 29.3257155,3.76373341 C31.4965775,3.49589743 32.1969697,3.09387616 32.1969697,3.09387616 C32.1969697,3.09387616 30.0995195,8.37646419 30.0959793,8.38555244 C29.0698926,10.969644 25.9226924,12.8970651 23.0100743,12.2491266 C22.1617407,12.0604118 21.3132208,11.6740722 20.6672352,11.1109573 C20.5194802,10.982118 19.2368252,9.78995388 19.590841,9.59108165 L26.0339279,5.97413761 L19.590841,7.71569518 Z" id="Fill-10" fill="#B8D436"></path>
                            <path d="M17.6632458,26.8429927 C18.1604958,26.5427619 18.0080715,26.4893466 18.6389438,26.4609812 C18.724557,26.456929 19.9193079,26.4576658 20.0571287,26.3580186 C19.3174601,26.2454781 18.200838,25.971955 17.6143239,26.474243 C17.3994696,26.6582495 17.1616146,26.517712 17.0603027,26.3917255 C16.8405196,26.117834 16.7120086,26.1310957 16.6251176,25.8360222 C16.5754656,25.6673035 16.4615581,24.8614693 16.4863841,24.3031873 L16.8122253,19.2561782 L17.6225384,6.70339835 L16.0015471,6.70339835 L14.3807383,6.70339835 L15.191234,19.2561782 L15.4778282,23.695358 L15.4778282,23.6955422 C15.497908,24.0071928 15.4442401,24.7340093 15.4440575,24.7513232 C15.4433273,24.7947922 15.4166759,25.2399811 15.4174061,25.2834501 C15.4181363,25.3589683 15.4199617,25.4357758 15.3894768,25.5085312 C15.3520553,25.5978637 15.2753868,25.6726451 15.218433,25.7542416 C15.1629396,25.8343645 15.1059859,25.9144875 15.037897,25.9881637 C14.6726263,26.3845421 14.0539844,26.4374048 13.5638536,26.6656171 C13.3480865,26.7661852 10.7597942,27.1859558 10.5610037,27.2887342 C10.4350483,27.3539377 12.9269574,27.0459709 12.8431696,27.1498544 C12.6706655,27.364805 12.3555944,27.7558418 12.0876197,27.894169 C11.9432274,27.9689504 11.7754694,28.0085514 11.6254181,28.0755968 C11.5228284,28.1214603 11.3587213,28.1848219 11.3087042,28.2759963 L12.353769,28.20232 C12.8108593,28.5485985 12.6089656,28.6136178 12.718492,29.3901658 C12.9375449,29.0816464 12.9658392,28.6744008 12.9459419,28.3747225 C12.9260446,28.0776229 12.9132665,28.2577614 12.8606939,27.9636089 C12.8099466,27.6766398 12.9893874,27.4357184 13.3159588,27.3139683 C13.7967798,27.134935 14.2794264,26.9584803 14.7659063,26.7895774 C14.9369501,26.730268 15.4719868,26.43851 15.7047304,26.3790164 C15.8626311,26.8682269 15.7375884,27.5480747 15.7618667,27.9777916 C15.7855975,28.3905629 15.6348161,28.8672484 15.5185355,29.3918235 C15.9117354,28.7593127 16.1592652,27.7764712 16.1630986,27.7565786 C16.1981471,27.5843603 16.4100807,27.1242519 16.4542564,26.9065385 C17.026532,26.8940136 17.2600059,27.2600005 17.7943124,27.3916968 C18.1486304,27.4790032 18.4646142,27.5303924 19.0257547,27.5202619 C18.5442034,27.2266619 17.894164,27.162932 17.6632458,26.8429927" id="Fill-12" fill="#273779"></path>
                            <path d="M22.6877906,19.0904992 C22.6529727,18.8565253 22.5024089,18.6581319 22.3143923,18.5035154 C22.225936,18.4303054 22.100027,18.3472223 22.0168405,18.3041905 C21.9374181,18.2628352 21.8572429,18.2207348 21.7789497,18.1879487 C21.150722,17.9198847 20.53868,17.7870635 19.923815,17.6572229 C19.3100791,17.5327846 18.6974725,17.434985 18.0850541,17.3459408 C17.7014927,17.2906141 17.3186842,17.2440429 16.9356874,17.19505 C16.2581502,17.1082412 15.5811775,17.0259032 14.9049577,16.9491538 C14.7427251,16.9307116 14.579928,16.9109654 14.4176954,16.8927095 C13.1981284,16.7541135 11.9798787,16.6218512 10.7759326,16.4545673 C10.1749947,16.369994 9.57575065,16.2768515 8.99796192,16.1537172 C8.71113781,16.091498 8.42525473,16.0214548 8.17437774,15.9325969 C8.11565784,15.9113604 8.04545745,15.8841628 8.00668726,15.8657206 C7.98617294,15.856779 7.97375142,15.8497001 7.95869504,15.8392682 C7.9297115,15.8217574 7.90261001,15.7902752 7.9139023,15.7543222 C7.91672537,15.7269384 7.91936024,15.6941522 7.93573405,15.6833477 C7.94269763,15.6237365 8.00894572,15.5764201 8.04319899,15.5171815 C8.16365006,15.4082048 8.31590774,15.2936396 8.52726173,15.1928594 C8.7224301,15.0920793 8.96728454,14.9831026 9.20442259,14.8696551 L9.8836537,14.5647066 C10.774427,14.1496638 11.7282489,13.7692699 12.6613683,13.3747184 L14.6143695,12.5319654 L14.5360763,11.3442126 L12.2164521,12.3788391 C11.2899199,12.7840089 10.3669636,13.1636576 9.42744527,13.6140946 L8.7261942,13.9402795 C8.50844125,14.0477659 8.29125291,14.1461244 8.03811746,14.2795044 C7.57607469,14.5371364 6.88272822,14.9110103 6.86164928,15.9363226 C6.87557643,16.0587118 6.8975964,16.187621 6.96591474,16.2992057 C7.03724435,16.4055744 7.1213719,16.5048643 7.2312835,16.5797508 C7.33310229,16.6611573 7.46014053,16.7216999 7.5764511,16.7788894 C7.67751707,16.8230389 7.75091694,16.8494914 7.83636192,16.8794833 C8.1651557,16.9908817 8.47776387,17.0607385 8.79074844,17.1253794 C9.41427093,17.2503766 10.0297006,17.3377442 10.6445657,17.4165428 C11.873543,17.5720907 13.096686,17.690009 14.3171941,17.8137022 C14.5338178,17.8354976 14.7496887,17.8587832 14.9663124,17.8809511 C15.6048913,17.9461508 16.2413999,18.0163803 16.8767793,18.0899628 C17.2386971,18.1320632 17.6013678,18.1717419 17.9614036,18.2192446 C18.5640353,18.2993471 19.1644086,18.388205 19.7544307,18.5005348 C20.3393712,18.6139823 20.9346629,18.7447544 21.4369815,18.9539524 C21.5004066,18.9791008 21.555927,19.0089064 21.612953,19.0366629 C21.6654622,19.0659096 21.6665914,19.0659096 21.6968924,19.0867735 C21.7411205,19.1190008 21.7870425,19.1603561 21.7973937,19.2166141 C21.8084978,19.2723133 21.7859132,19.3293165 21.7509071,19.3732798 C21.7063026,19.4239493 21.6982098,19.4347538 21.5707951,19.5191409 C21.1305841,19.7924209 20.545079,19.9807549 19.9770769,20.1454308 C18.9097675,20.4442319 17.8021823,20.6657247 16.6929032,20.8834918 L16.6420879,21.6571331 C17.8236377,21.4404837 19.0089515,21.2247658 20.1935124,20.9086402 C20.7997201,20.7357678 21.4046103,20.5675525 22.0145821,20.2056009 C22.1448198,20.1282926 22.3855337,19.9481551 22.5159596,19.7570267 C22.6531609,19.5614275 22.7212911,19.3229828 22.6877906,19.0904992" id="Fill-14" fill="#B8D436"></path>
                        </g>
                    </g>
                </g>
            </g>
        </g>
    </g>
</svg>