<?xml version="1.0" encoding="UTF-8"?>
<svg width="24px" height="24px" viewBox="0 0 24 24" version="1.1" xmlns="http://www.w3.org/2000/svg" xmlns:xlink="http://www.w3.org/1999/xlink">
    <!-- Generator: Sketch 47.1 (45422) - http://www.bohemiancoding.com/sketch -->
    <title>Shape</title>
    <desc>Created with Sketch.</desc>
    <defs></defs>
    <g id="Order-Page" stroke="none" stroke-width="1" fill="none" fill-rule="evenodd">
        <g id="GundryMD_OrderPage" transform="translate(-1135.000000, -18.000000)" fill-rule="nonzero" fill="#27377A">
            <g id="Menu">
                <path d="M1143.32256,37.4215633 C1143.32256,37.4215633 1147.66778,41.2108856 1152.5168,41.9055947 C1152.5168,41.9055947 1155.91741,42.6634592 1158.24746,39.8846228 C1158.24746,39.8846228 1159.8533,38.7162485 1158.37341,36.853165 L1154.7209,33.2533088 C1154.7209,33.2533088 1153.83926,32.2428229 1152.42234,33.1269981 L1150.24973,35.2742807 C1150.24973,35.2742807 1144.26717,32.1796675 1141.87415,26.7798832 L1143.54297,25.1062659 C1143.54297,25.1062659 1145.21179,23.6221146 1143.57446,21.9484973 L1139.92195,18.3486411 C1139.92195,18.3486411 1138.63098,17.4328882 1137.34001,18.5696849 C1137.34001,18.5696849 1134.19129,21.2222105 1135.19888,25.6746642 C1135.19888,25.6746642 1135.29334,30.3481617 1143.32256,37.4215633 Z" id="Shape"></path>
            </g>
        </g>
    </g>
</svg>