<?xml version="1.0" encoding="UTF-8"?>
<svg width="37px" height="26px" viewBox="0 0 37 26" version="1.1" xmlns="http://www.w3.org/2000/svg" xmlns:xlink="http://www.w3.org/1999/xlink">
    <!-- Generator: Sketch 47.1 (45422) - http://www.bohemiancoding.com/sketch -->
    <title>Shipping_icon</title>
    <desc>Created with Sketch.</desc>
    <defs></defs>
    <g id="Order-Page" stroke="none" stroke-width="1" fill="none" fill-rule="evenodd">
        <g id="GundryMD_OrderPage" transform="translate(-640.000000, -733.000000)" fill="#9C9C9C">
            <g id="Buy-Options" transform="translate(235.000000, 288.000000)">
                <g id="Choose-Your-Package" transform="translate(300.000000, 0.000000)">
                    <g id="Free-Shipping" transform="translate(105.000000, 445.000000)">
                        <g id="Shipping_icon">
                            <path d="M28.9978371,18.182386 C30.3802054,18.182386 31.4833659,19.392386 31.4833659,20.9092042 C31.4833659,22.4264769 30.3802054,23.6364769 28.9978371,23.6364769 C27.6154688,23.6364769 26.5123082,22.4264769 26.5123082,20.9092042 C26.5123082,19.392386 27.6154688,18.182386 28.9978371,18.182386 L28.9978371,18.182386 Z M7.87084196,18.182386 C9.25321025,18.182386 10.3563708,19.392386 10.3563708,20.9092042 C10.3563708,22.4264769 9.25321025,23.6364769 7.87084196,23.6364769 C6.48847368,23.6364769 5.38531313,22.4264769 5.38531313,20.9092042 C5.38531313,19.392386 6.48847368,18.182386 7.87084196,18.182386 L7.87084196,18.182386 Z M15.7416833,14.5460225 L34.7974044,14.5460225 L34.7974044,20.0001133 L33.0496633,20.0001133 C32.6619208,17.9342042 30.9912312,16.3642043 28.9978371,16.3642043 C27.004443,16.3642043 25.3337533,17.9342042 24.9460108,20.0001133 L15.7416833,20.0001133 L15.7416833,14.5460225 Z M12.4276448,7.72784077 L14.0846641,7.72784077 L14.0846641,20.0001133 L11.9226682,20.0001133 C11.5349257,17.9342042 9.86423609,16.3642043 7.87084196,16.3642043 C5.87744784,16.3642043 4.2067582,17.9342042 3.8190157,20.0001133 L1.65701987,20.0001133 L1.65701987,16.0373861 L3.87079756,15.0005679 L11.5991352,15.0005679 C12.0564725,15.0005679 12.4276448,14.5932952 12.4276448,14.091477 L12.4276448,7.72784077 Z M9.11360638,7.72784077 L10.7706256,7.72784077 L10.7706256,13.1823861 L5.38531313,13.1823861 L9.11360638,7.72784077 Z M15.7416833,1.81920451 L34.7974044,1.81920451 L34.7974044,12.7278407 L15.7416833,12.7278407 L15.7416833,6.81874988 C15.742926,6.79056806 15.742926,6.7619317 15.7416833,6.73374988 L15.7416833,1.81920451 Z M14.8352938,0.00102272725 C14.4086113,0.045568181 14.083007,0.439659083 14.0846641,0.91011362 L14.0846641,5.91011353 L8.69935158,5.91011353 C8.67325352,5.9087499 8.64756973,5.9087499 8.62147167,5.91011353 C8.39073175,5.93374989 8.17946179,6.06238626 8.03902942,6.26511353 L3.1976335,13.3528407 L0.504977255,14.6169316 C0.198428698,14.7596588 -0.000413608776,15.0896588 6.46030323e-07,15.4551134 L6.46030323e-07,20.9092042 C6.46030323e-07,21.4114769 0.371172952,21.8182951 0.828510258,21.8182951 L3.8190157,21.8182951 C4.2067582,23.8846587 5.87744784,25.4546586 7.87084196,25.4546586 C9.86423609,25.4546586 11.5349257,23.8846587 11.9226682,21.8182951 L14.8485499,21.8182951 L14.9131737,21.8182951 L14.9906393,21.8182951 L24.9460108,21.8182951 C25.3337533,23.8846587 27.004443,25.4546586 28.9978371,25.4546586 C30.9912312,25.4546586 32.6619208,23.8846587 33.0496633,21.8182951 L35.625914,21.8182951 C36.0832513,21.8182951 36.4544236,21.4114769 36.4544236,20.9092042 L36.4544236,0.91011362 C36.4544236,0.407840902 36.0832513,0.00102272725 35.625914,0.00102272725 L14.9131737,0.00102272725 C14.8870756,-0.000340909085 14.8613918,-0.000340909085 14.8352938,0.00102272725 L14.8352938,0.00102272725 Z" id="Fill-1" transform="translate(18.227212, 12.727329) scale(-1, 1) translate(-18.227212, -12.727329) "></path>
                        </g>
                    </g>
                </g>
            </g>
        </g>
    </g>
</svg>